<?xml version="1.0" encoding="UTF-8" standalone="no"?>
<svg viewBox="0 0 207 210" version="1.1" id="svg30" sodipodi:docname="favicon.svg" inkscape:version="1.2.2 (b0a8486, 2022-12-01)" xmlns:inkscape="http://www.inkscape.org/namespaces/inkscape" xmlns:sodipodi="http://sodipodi.sourceforge.net/DTD/sodipodi-0.dtd" xmlns="http://www.w3.org/2000/svg" xmlns:svg="http://www.w3.org/2000/svg">
  <defs id="defs34"/>
  <sodipodi:namedview id="namedview32" pagecolor="#ffffff" bordercolor="#000000" borderopacity="0.25" inkscape:showpageshadow="2" inkscape:pageopacity="0.0" inkscape:pagecheckerboard="0" inkscape:deskcolor="#d1d1d1" showgrid="false" inkscape:zoom="1.1238095" inkscape:cx="39.597458" inkscape:cy="94.766949" inkscape:window-width="1420" inkscape:window-height="765" inkscape:window-x="0" inkscape:window-y="25" inkscape:window-maximized="0" inkscape:current-layer="g26"/>
  <style type="text/css" id="style2">
        .st0{fill:#FFFFFF;}

        @media (prefers-color-scheme: dark) {
            .st0{fill:#FFFFFF;}
        }
    </style>
  <g id="g28">
    <g id="g26" style="fill:#800000">
      <path d="M0.9,103.2C1,49.3,48.8,0,102.4,1.6C158.3,3.1,205.6,45,205.9,106.1c0.2,59.2-52.1,102.8-103.3,101.5                 C41.2,206,1.1,158.5,0.9,103.2z M14.8,124.9c3.5,10,6.5,18.9,10,27.7c0.5,1.4,3.4,2.6,5.2,2.5c9.8-0.3,19.7-0.6,29.4-1.7                 c18-1.9,36-4.6,54-6.3c12.2-1.1,24.5-3.3,36.7,0c4.5,1.2,9.1,2.2,14,3.4c-4.6-14.7-12.1-21.8-26.8-25.5c-20.3-5.1-41-3.9-61.6-2.6                 c-15.3,1-30.5,1.7-45.8,2.5C25.5,125.1,21,124.9,14.8,124.9z M32.7,164.8c2.7,3.4,4.3,5.9,6.4,7.9c11.7,11.1,26.1,17.1,41.4,20.9                 c29.9,7.5,57.4,2.6,81.3-17.8c7.3-6.2,7.1-7.5-1.8-11.4c-15-6.7-30.9-6.4-46.6-5.9c-20.9,0.7-41.8,3-62.7,4.7                 C45.1,163.6,39.6,164.1,32.7,164.8z M146.7,112.7c-3.7-13.8-12.6-21.8-25.9-24.6c-7.3-1.5-14.8-2.9-22.2-2.9                 c-27.3,0.2-54.5,1-81.8,1.5c-2.7,0-4.1,0.9-4.2,3.6c-0.2,7.5-0.3,14.9-0.7,22.4c-0.3,4.6,1.8,5.9,6,5.5c16.7-1.9,33.4-3.4,50-5.8                 C94,108.6,120.2,104.6,146.7,112.7z M129.2,76.3c-3.3-15-11.9-23.5-26.6-25.1c-17.7-1.9-35.5-3-53.3-1c-4,0.4-8.1,1.2-11.9,0.6                 c-7.4-1.2-11.6,1.9-14.3,8.3c-3,7.1-6.1,14.1-9.5,21.8c4.2,0,6.9,0.3,9.4,0c12.9-1.7,25.7-3.8,38.5-5.3                 C84,73,106.5,68.6,129.2,76.3z M168.6,123.7c4.4-5.1,8.2-9.9,12.5-14.3c4.6-4.7,9.7-8.9,14.3-13.6c1.5-1.5,2.8-4.3,2.5-6.3                 c-0.8-5.4-2-10.9-4.1-15.9c-2.2-5.5-5.5-10.7-8.5-16.4c-12.1,10.9-20.6,22.5-25.4,36.4c-1.3,3.7-0.9,8.7,0.4,12.5                 C162.2,112.2,165.7,117.7,168.6,123.7z M38.2,41.3c24.9-2,49.5-7.6,75.4-1.3c-2.9-6.6-5.6-12.2-7.9-18c-5.2-12.9-3.4-11.9-17.2-10                 C67.7,14.7,52,26.2,38.2,41.3z M149.3,87.4c7.7-15.6,20-26,33.4-37.2c-6.6-6.5-12.6-12.6-18.8-18.6c-2.5-2.4-5.1-2.3-7.3,0.3                 c-4.8,5.7-10.5,11-13.9,17.4c-3.3,6.1-5.7,13.4-2.4,20.6C143,75.7,146.1,81.2,149.3,87.4z M108.2,10.9                 c7.5,13.1,14.4,25.3,21.4,37.6c6.7-8,13-15.4,19.6-23.3C137.5,15.1,124.3,10.9,108.2,10.9z M195.9,106.3                 c-5.4,9.3-14.9,15.6-17.8,26.6c-2.2,8.1,1.5,13.8,6.1,20.8C192.6,138.3,195.3,122.7,195.9,106.3z" id="path6" style="fill:#cc2229;fill-opacity:1"/>
    </g>
  </g>
</svg>