<?xml version="1.0" encoding="UTF-8"?><svg id="Layer_1" xmlns="http://www.w3.org/2000/svg" width="100" height="100" viewBox="0 0 100 100"><defs><style>.cls-1{fill:#ececec;}</style></defs><path class="cls-1" d="M82.79,67.16c-4.58,8.75-12.27,15.12-21.74,18.15-9.43,2.95-19.45,2.05-28.2-2.54-8.75-4.58-15.2-12.3-18.15-21.74-2.95-9.43-2.05-19.45,2.54-28.2,4.58-8.76,12.27-15.15,21.74-18.15,9.43-2.95,19.45-2.05,28.2,2.54l1.39-2.65c-9.46-4.96-20.29-5.93-30.49-2.74-10.13,3.17-18.54,10.15-23.5,19.61-4.96,9.46-5.93,20.29-2.74,30.49,3.19,10.2,10.15,18.54,19.61,23.5,9.46,4.96,20.29,5.93,30.49,2.74,.24-.07,.47-.15,.71-.23,9.87-3.28,17.95-10.14,22.79-19.39,2.88-5.49,4.41-11.39,4.56-17.55l-3-.07c-.14,5.69-1.56,11.15-4.22,16.23Z"/><path class="cls-1" d="M69.66,53.09c-1.7,10.83-11.9,18.26-22.73,16.55-5.25-.82-9.86-3.65-12.99-7.94-3.13-4.29-4.39-9.55-3.57-14.8,.82-5.25,3.65-9.86,7.94-12.99,4.3-3.13,9.55-4.39,14.8-3.57l.47-2.96c-6.04-.95-12.09,.51-17.03,4.11-4.94,3.6-8.18,8.9-9.13,14.94-.95,6.04,.51,12.08,4.11,17.02,3.6,4.94,8.9,8.18,14.94,9.13,3.67,.58,7.33,.27,10.76-.87,2.21-.74,4.33-1.82,6.27-3.23,4.94-3.6,8.19-8.91,9.13-14.94,.55-3.5,.3-6.98-.75-10.35l-2.86,.89c.91,2.92,1.13,5.95,.65,8.99Z"/><path class="cls-1" d="M59.94,79.85c-16.46,5.47-34.3-3.46-39.78-19.92-5.47-16.46,3.46-34.3,19.92-39.78l-.95-2.84c-18.03,6-27.81,25.54-21.82,43.56,6,18.03,25.54,27.81,43.56,21.82,18.03-6,27.81-25.54,21.82-43.56l-2.84,.95c5.47,16.46-3.46,34.3-19.92,39.78Z"/><path class="cls-1" d="M75.73,51.44c-.39,6.87-3.42,13.18-8.56,17.77-10.59,9.47-26.91,8.55-36.38-2.04-9.47-10.59-8.55-26.91,2.05-36.38l-2-2.23c-11.82,10.57-12.85,28.78-2.28,40.61,7.88,8.81,20,11.63,30.56,8.11,3.61-1.2,7.04-3.14,10.05-5.83,5.73-5.12,9.12-12.16,9.55-19.83,.43-7.67-2.15-15.05-7.27-20.78l-2.23,2c4.59,5.13,6.9,11.74,6.51,18.61Z"/><path class="cls-1" d="M63.48,33.1c2.2-.73,3.39-3.11,2.66-5.31-.73-2.2-3.11-3.39-5.31-2.66-2.2,.73-3.39,3.11-2.66,5.31,.73,2.2,3.11,3.39,5.31,2.66Z"/></svg>